<svg xmlns="http://www.w3.org/2000/svg" width="1280" height="400" viewBox="0 0 1280 400" role="img" aria-label="Panel controls: tap, drag, minimize, and close">
<title>Panel controls: tap, drag, minimize, and close</title>
<defs>
<linearGradient id="sky" x1="0" y1="0" x2="0" y2="1">
  <stop offset="0" stop-color="#090c22"/><stop offset="0.55" stop-color="#1a1a5e"/>
  <stop offset="1" stop-color="#5a3fd0"/>
</linearGradient>
<pattern id="studs" width="32" height="32" patternUnits="userSpaceOnUse">
  <rect width="32" height="32" fill="#2c7a43"/>
  <rect x="8" y="8" width="16" height="16" rx="5" fill="#3a9657" stroke="#226036" stroke-width="2"/>
  <rect x="11" y="10" width="7" height="3" rx="1.5" fill="#6bc486" opacity="0.7"/>
</pattern>
</defs>
<rect x="0" y="0" width="1280" height="400" rx="0" fill="url(#sky)" /><rect x="538" y="82" width="3" height="3" rx="0" fill="#ffffff" opacity="0.4"/><rect x="309" y="230" width="3" height="3" rx="0" fill="#ffffff" opacity="0.4"/><rect x="274" y="26" width="3" height="3" rx="0" fill="#ffffff" opacity="0.6"/><rect x="69" y="118" width="3" height="3" rx="0" fill="#ffffff" opacity="0.25"/><rect x="572" y="221" width="3" height="3" rx="0" fill="#ffffff" opacity="0.25"/><rect x="545" y="219" width="5" height="5" rx="0" fill="#ffffff" opacity="0.8"/><rect x="293" y="211" width="4" height="4" rx="0" fill="#ffffff" opacity="0.6"/><rect x="487" y="132" width="5" height="5" rx="0" fill="#ffffff" opacity="0.6"/><rect x="888" y="171" width="4" height="4" rx="0" fill="#ffffff" opacity="0.25"/><rect x="716" y="217" width="4" height="4" rx="0" fill="#ffffff" opacity="0.8"/><rect x="1143" y="164" width="3" height="3" rx="0" fill="#ffffff" opacity="0.8"/><rect x="916" y="145" width="3" height="3" rx="0" fill="#ffffff" opacity="0.6"/><rect x="422" y="53" width="4" height="4" rx="0" fill="#ffffff" opacity="0.6"/><rect x="768" y="125" width="4" height="4" rx="0" fill="#ffffff" opacity="0.6"/><rect x="818" y="235" width="3" height="3" rx="0" fill="#ffffff" opacity="0.8"/><rect x="1134" y="68" width="3" height="3" rx="0" fill="#ffffff" opacity="0.4"/><rect x="758" y="41" width="3" height="3" rx="0" fill="#ffffff" opacity="0.8"/><rect x="957" y="107" width="3" height="3" rx="0" fill="#ffffff" opacity="0.8"/><rect x="96" y="65" width="3" height="3" rx="0" fill="#ffffff" opacity="0.8"/><rect x="919" y="171" width="4" height="4" rx="0" fill="#ffffff" opacity="0.4"/><rect x="854" y="196" width="4" height="4" rx="0" fill="#ffffff" opacity="0.6"/><rect x="423" y="188" width="4" height="4" rx="0" fill="#ffffff" opacity="0.4"/><rect x="1243" y="68" width="5" height="5" rx="0" fill="#ffffff" opacity="0.4"/><rect x="95" y="156" width="3" height="3" rx="0" fill="#ffffff" opacity="0.6"/><rect x="1202" y="194" width="4" height="4" rx="0" fill="#ffffff" opacity="0.4"/><rect x="612" y="57" width="3" height="3" rx="0" fill="#ffffff" opacity="0.25"/><rect x="469" y="50" width="3" height="3" rx="0" fill="#ffffff" opacity="0.8"/><rect x="1226" y="150" width="3" height="3" rx="0" fill="#ffffff" opacity="0.8"/><rect x="710" y="173" width="3" height="3" rx="0" fill="#ffffff" opacity="0.25"/><rect x="267" y="87" width="3" height="3" rx="0" fill="#ffffff" opacity="0.8"/><rect x="625" y="240" width="4" height="4" rx="0" fill="#ffffff" opacity="0.25"/><rect x="970" y="141" width="4" height="4" rx="0" fill="#ffffff" opacity="0.25"/><rect x="19" y="89" width="4" height="4" rx="0" fill="#ffffff" opacity="0.4"/><rect x="1024" y="151" width="5" height="5" rx="0" fill="#ffffff" opacity="0.4"/><rect x="432" y="83" width="3" height="3" rx="0" fill="#ffffff" opacity="0.8"/><rect x="1034" y="190" width="3" height="3" rx="0" fill="#ffffff" opacity="0.4"/><rect x="537" y="116" width="3" height="3" rx="0" fill="#ffffff" opacity="0.6"/><rect x="878" y="158" width="3" height="3" rx="0" fill="#ffffff" opacity="0.6"/><rect x="508" y="159" width="4" height="4" rx="0" fill="#ffffff" opacity="0.8"/><rect x="425" y="172" width="4" height="4" rx="0" fill="#ffffff" opacity="0.8"/><rect x="86" y="89" width="5" height="5" rx="0" fill="#ffffff" opacity="0.8"/><rect x="185" y="25" width="3" height="3" rx="0" fill="#ffffff" opacity="0.25"/><rect x="635" y="56" width="5" height="5" rx="0" fill="#ffffff" opacity="0.8"/><rect x="1143" y="107" width="4" height="4" rx="0" fill="#ffffff" opacity="0.25"/><rect x="600" y="143" width="5" height="5" rx="0" fill="#ffffff" opacity="0.4"/><rect x="311" y="229" width="3" height="3" rx="0" fill="#ffffff" opacity="0.25"/><rect x="762" y="218" width="3" height="3" rx="0" fill="#ffffff" opacity="0.4"/><rect x="638" y="85" width="5" height="5" rx="0" fill="#ffffff" opacity="0.6"/><rect x="76" y="96" width="3" height="3" rx="0" fill="#ffffff" opacity="0.25"/><rect x="747" y="133" width="5" height="5" rx="0" fill="#ffffff" opacity="0.8"/><rect x="97" y="97" width="4" height="4" rx="0" fill="#ffffff" opacity="0.4"/><rect x="108" y="90" width="3" height="3" rx="0" fill="#ffffff" opacity="0.4"/><rect x="18" y="237" width="3" height="3" rx="0" fill="#ffffff" opacity="0.4"/><rect x="191" y="130" width="4" height="4" rx="0" fill="#ffffff" opacity="0.25"/><rect x="714" y="75" width="3" height="3" rx="0" fill="#ffffff" opacity="0.25"/><rect x="495" y="178" width="3" height="3" rx="0" fill="#ffffff" opacity="0.8"/><rect x="407" y="154" width="5" height="5" rx="0" fill="#ffffff" opacity="0.25"/><rect x="1128" y="237" width="3" height="3" rx="0" fill="#ffffff" opacity="0.25"/><rect x="0" y="336" width="1280" height="6" rx="0" fill="#1b4d2b" /><rect x="0" y="342" width="1280" height="58" rx="0" fill="url(#studs)" /><rect x="0" y="342" width="1280" height="5" rx="0" fill="#000" opacity="0.25"/><rect x="31.0" y="37" width="296" height="282" rx="14" fill="#07080f" opacity="0.55"/><rect x="24.0" y="30" width="296" height="282" rx="14" fill="#202332" stroke="#000" stroke-width="2" stroke-opacity="0.35"/><rect x="38.0" y="44" width="268" height="140" rx="10" fill="#101118" stroke="#3a3f5a" stroke-width="1" /><circle cx="172.0" cy="114" r="46" fill="none" stroke="#2ecc85" stroke-width="3" opacity="0.36"/><circle cx="172.0" cy="114" r="32" fill="none" stroke="#2ecc85" stroke-width="3" opacity="0.64"/><rect x="132.0" y="97" width="80" height="34" rx="8" fill="#2ecc85" /><text x="172.0" y="120" font-family="'Segoe UI','Helvetica Neue',Arial,sans-serif" font-size="16" font-weight="800" fill="#fff" text-anchor="middle" >ON</text><circle cx="206.0" cy="138" r="11" fill="#fff" opacity="0.9"/><circle cx="206.0" cy="138" r="4" fill="#7c5cff"/><text x="44.0" y="220" font-family="'Segoe UI','Helvetica Neue',Arial,sans-serif" font-size="21" font-weight="900" fill="#f0f2fa" text-anchor="start" >Quick tap</text><text x="44.0" y="250" font-family="'Segoe UI','Helvetica Neue',Arial,sans-serif" font-size="14.5" font-weight="500" fill="#e3e6fb" text-anchor="start" >Buttons react when you tap</text><text x="44.0" y="274" font-family="'Segoe UI','Helvetica Neue',Arial,sans-serif" font-size="14.5" font-weight="500" fill="#e3e6fb" text-anchor="start" >without moving your finger.</text><rect x="343.0" y="37" width="296" height="282" rx="14" fill="#07080f" opacity="0.55"/><rect x="336.0" y="30" width="296" height="282" rx="14" fill="#202332" stroke="#000" stroke-width="2" stroke-opacity="0.35"/><rect x="350.0" y="44" width="268" height="140" rx="10" fill="#101118" stroke="#3a3f5a" stroke-width="1" /><rect x="386.0" y="80" width="64" height="56" rx="8" fill="none" stroke="#8a90b8" stroke-width="2" stroke-dasharray="6 5"/><rect x="512.0" y="96" width="64" height="56" rx="8" fill="#181a25" stroke="#7c5cff" stroke-width="2" /><rect x="512.0" y="96" width="64" height="12" rx="6" fill="#7c5cff" /><path d="M458.0 108 H500.0 m-9 -9 l9 9 l-9 9" fill="none" stroke="#fff" stroke-width="4" stroke-linecap="square"/><text x="479.0" y="92" font-family="Consolas,'SFMono-Regular',Menlo,'DejaVu Sans Mono',monospace" font-size="12" font-weight="800" fill="#fff" text-anchor="middle" >&gt; 10 px</text><text x="356.0" y="220" font-family="'Segoe UI','Helvetica Neue',Arial,sans-serif" font-size="21" font-weight="900" fill="#f0f2fa" text-anchor="start" >Drag</text><text x="356.0" y="250" font-family="'Segoe UI','Helvetica Neue',Arial,sans-serif" font-size="14.5" font-weight="500" fill="#e3e6fb" text-anchor="start" >Moving more than 10 px</text><text x="356.0" y="274" font-family="'Segoe UI','Helvetica Neue',Arial,sans-serif" font-size="14.5" font-weight="500" fill="#e3e6fb" text-anchor="start" >drags the panel. Buttons</text><text x="356.0" y="298" font-family="'Segoe UI','Helvetica Neue',Arial,sans-serif" font-size="14.5" font-weight="500" fill="#e3e6fb" text-anchor="start" >stay inactive while dragging.</text><rect x="655.0" y="37" width="296" height="282" rx="14" fill="#07080f" opacity="0.55"/><rect x="648.0" y="30" width="296" height="282" rx="14" fill="#202332" stroke="#000" stroke-width="2" stroke-opacity="0.35"/><rect x="662.0" y="44" width="268" height="140" rx="10" fill="#101118" stroke="#3a3f5a" stroke-width="1" /><rect x="696.0" y="96" width="112" height="36" rx="8" fill="#181a25" stroke="#3a3f5a" stroke-width="1" /><rect x="744.0" y="102" width="24" height="24" rx="6" fill="#7c5cff" /><text x="756.0" y="120" font-family="'Segoe UI','Helvetica Neue',Arial,sans-serif" font-size="17" font-weight="800" fill="#fff" text-anchor="middle" >-</text><rect x="772.0" y="102" width="24" height="24" rx="6" fill="#f05460" /><text x="784.0" y="119" font-family="'Segoe UI','Helvetica Neue',Arial,sans-serif" font-size="13" font-weight="800" fill="#fff" text-anchor="middle" >X</text><path d="M816.0 114 h24 m-9 -9 l9 9 l-9 9" fill="none" stroke="#fff" stroke-width="4" stroke-linecap="square"/><g transform="translate(874.0,114) scale(0.9)"><circle cx="4" cy="5" r="26" fill="#07080f" opacity="0.6"/><circle r="26" fill="#7c5cff" stroke="#000" stroke-opacity="0.3" stroke-width="2"/><text x="0" y="9" font-family="'Segoe UI','Helvetica Neue',Arial,sans-serif" font-size="24" font-weight="800" fill="#f0f2fa" text-anchor="middle" >L</text></g><text x="668.0" y="220" font-family="'Segoe UI','Helvetica Neue',Arial,sans-serif" font-size="21" font-weight="900" fill="#f0f2fa" text-anchor="start" >Minimize (-)</text><text x="668.0" y="250" font-family="'Segoe UI','Helvetica Neue',Arial,sans-serif" font-size="14.5" font-weight="500" fill="#e3e6fb" text-anchor="start" >The panel becomes an L</text><text x="668.0" y="274" font-family="'Segoe UI','Helvetica Neue',Arial,sans-serif" font-size="14.5" font-weight="500" fill="#e3e6fb" text-anchor="start" >bubble. Tap the bubble to</text><text x="668.0" y="298" font-family="'Segoe UI','Helvetica Neue',Arial,sans-serif" font-size="14.5" font-weight="500" fill="#e3e6fb" text-anchor="start" >open it again.</text><rect x="967.0" y="37" width="296" height="282" rx="14" fill="#07080f" opacity="0.55"/><rect x="960.0" y="30" width="296" height="282" rx="14" fill="#202332" stroke="#000" stroke-width="2" stroke-opacity="0.35"/><rect x="974.0" y="44" width="268" height="140" rx="10" fill="#101118" stroke="#3a3f5a" stroke-width="1" /><rect x="1010.0" y="94" width="40" height="40" rx="9" fill="#f05460" /><text x="1030.0" y="122" font-family="'Segoe UI','Helvetica Neue',Arial,sans-serif" font-size="22" font-weight="800" fill="#fff" text-anchor="middle" >X</text><path d="M1060.0 114 h24 m-9 -9 l9 9 l-9 9" fill="none" stroke="#fff" stroke-width="4" stroke-linecap="square"/><rect x="1096.0" y="80" width="104" height="22" rx="6" fill="#202332" stroke="#3a3f5a" stroke-width="1" /><text x="1104.0" y="96" font-family="'Segoe UI','Helvetica Neue',Arial,sans-serif" font-size="11" font-weight="800" fill="#f0f2fa" text-anchor="start" >SPEED</text><rect x="1158.0" y="83" width="36" height="16" rx="5" fill="#464b64" /><text x="1176.0" y="95" font-family="'Segoe UI','Helvetica Neue',Arial,sans-serif" font-size="10" font-weight="800" fill="#fff" text-anchor="middle" >OFF</text><rect x="1096.0" y="106" width="104" height="22" rx="6" fill="#202332" stroke="#3a3f5a" stroke-width="1" /><text x="1104.0" y="122" font-family="'Segoe UI','Helvetica Neue',Arial,sans-serif" font-size="11" font-weight="800" fill="#f0f2fa" text-anchor="start" >FLY</text><rect x="1158.0" y="109" width="36" height="16" rx="5" fill="#464b64" /><text x="1176.0" y="121" font-family="'Segoe UI','Helvetica Neue',Arial,sans-serif" font-size="10" font-weight="800" fill="#fff" text-anchor="middle" >OFF</text><rect x="1096.0" y="132" width="104" height="22" rx="6" fill="#202332" stroke="#3a3f5a" stroke-width="1" /><text x="1104.0" y="148" font-family="'Segoe UI','Helvetica Neue',Arial,sans-serif" font-size="11" font-weight="800" fill="#f0f2fa" text-anchor="start" >ESP</text><rect x="1158.0" y="135" width="36" height="16" rx="5" fill="#464b64" /><text x="1176.0" y="147" font-family="'Segoe UI','Helvetica Neue',Arial,sans-serif" font-size="10" font-weight="800" fill="#fff" text-anchor="middle" >OFF</text><text x="980.0" y="220" font-family="'Segoe UI','Helvetica Neue',Arial,sans-serif" font-size="21" font-weight="900" fill="#f0f2fa" text-anchor="start" >Close (X)</text><text x="980.0" y="250" font-family="'Segoe UI','Helvetica Neue',Arial,sans-serif" font-size="14.5" font-weight="500" fill="#e3e6fb" text-anchor="start" >Turns every feature off,</text><text x="980.0" y="274" font-family="'Segoe UI','Helvetica Neue',Arial,sans-serif" font-size="14.5" font-weight="500" fill="#e3e6fb" text-anchor="start" >then closes the panel.</text>
</svg>
