<svg xmlns="http://www.w3.org/2000/svg" width="1280" height="450" viewBox="0 0 1280 450" role="img" aria-label="Cara mengatur ketinggian saat Fly: arahkan kamera ke atas atau ke bawah sambil mendorong joystick">
<title>Cara mengatur ketinggian saat Fly: arahkan kamera ke atas atau ke bawah sambil mendorong joystick</title>
<defs>
<linearGradient id="sky" x1="0" y1="0" x2="0" y2="1">
  <stop offset="0" stop-color="#090c22"/><stop offset="0.55" stop-color="#1a1a5e"/>
  <stop offset="1" stop-color="#5a3fd0"/>
</linearGradient>
<pattern id="studs" width="32" height="32" patternUnits="userSpaceOnUse">
  <rect width="32" height="32" fill="#2c7a43"/>
  <rect x="8" y="8" width="16" height="16" rx="5" fill="#3a9657" stroke="#226036" stroke-width="2"/>
  <rect x="11" y="10" width="7" height="3" rx="1.5" fill="#6bc486" opacity="0.7"/>
</pattern>
</defs>
<rect x="0" y="0" width="1280" height="450" rx="0" fill="url(#sky)" /><rect x="1077" y="220" width="4" height="4" rx="0" fill="#ffffff" opacity="0.6"/><rect x="601" y="97" width="4" height="4" rx="0" fill="#ffffff" opacity="0.25"/><rect x="63" y="135" width="5" height="5" rx="0" fill="#ffffff" opacity="0.8"/><rect x="524" y="264" width="4" height="4" rx="0" fill="#ffffff" opacity="0.8"/><rect x="289" y="39" width="3" height="3" rx="0" fill="#ffffff" opacity="0.4"/><rect x="317" y="280" width="3" height="3" rx="0" fill="#ffffff" opacity="0.6"/><rect x="1113" y="71" width="3" height="3" rx="0" fill="#ffffff" opacity="0.6"/><rect x="847" y="49" width="5" height="5" rx="0" fill="#ffffff" opacity="0.4"/><rect x="844" y="267" width="4" height="4" rx="0" fill="#ffffff" opacity="0.25"/><rect x="894" y="198" width="3" height="3" rx="0" fill="#ffffff" opacity="0.6"/><rect x="111" y="252" width="4" height="4" rx="0" fill="#ffffff" opacity="0.25"/><rect x="838" y="130" width="3" height="3" rx="0" fill="#ffffff" opacity="0.4"/><rect x="517" y="277" width="4" height="4" rx="0" fill="#ffffff" opacity="0.25"/><rect x="555" y="40" width="4" height="4" rx="0" fill="#ffffff" opacity="0.4"/><rect x="1244" y="280" width="3" height="3" rx="0" fill="#ffffff" opacity="0.6"/><rect x="637" y="186" width="4" height="4" rx="0" fill="#ffffff" opacity="0.4"/><rect x="688" y="56" width="4" height="4" rx="0" fill="#ffffff" opacity="0.6"/><rect x="27" y="33" width="4" height="4" rx="0" fill="#ffffff" opacity="0.25"/><rect x="964" y="147" width="5" height="5" rx="0" fill="#ffffff" opacity="0.25"/><rect x="414" y="166" width="4" height="4" rx="0" fill="#ffffff" opacity="0.25"/><rect x="1001" y="18" width="3" height="3" rx="0" fill="#ffffff" opacity="0.8"/><rect x="1001" y="208" width="3" height="3" rx="0" fill="#ffffff" opacity="0.4"/><rect x="522" y="85" width="3" height="3" rx="0" fill="#ffffff" opacity="0.4"/><rect x="110" y="164" width="4" height="4" rx="0" fill="#ffffff" opacity="0.6"/><rect x="109" y="90" width="5" height="5" rx="0" fill="#ffffff" opacity="0.25"/><rect x="646" y="136" width="5" height="5" rx="0" fill="#ffffff" opacity="0.8"/><rect x="161" y="51" width="3" height="3" rx="0" fill="#ffffff" opacity="0.4"/><rect x="1098" y="143" width="3" height="3" rx="0" fill="#ffffff" opacity="0.6"/><rect x="108" y="257" width="5" height="5" rx="0" fill="#ffffff" opacity="0.8"/><rect x="463" y="216" width="5" height="5" rx="0" fill="#ffffff" opacity="0.25"/><rect x="948" y="119" width="3" height="3" rx="0" fill="#ffffff" opacity="0.8"/><rect x="659" y="104" width="4" height="4" rx="0" fill="#ffffff" opacity="0.25"/><rect x="1191" y="273" width="5" height="5" rx="0" fill="#ffffff" opacity="0.25"/><rect x="681" y="94" width="3" height="3" rx="0" fill="#ffffff" opacity="0.6"/><rect x="761" y="96" width="3" height="3" rx="0" fill="#ffffff" opacity="0.6"/><rect x="896" y="190" width="5" height="5" rx="0" fill="#ffffff" opacity="0.25"/><rect x="1070" y="62" width="3" height="3" rx="0" fill="#ffffff" opacity="0.4"/><rect x="1187" y="99" width="5" height="5" rx="0" fill="#ffffff" opacity="0.8"/><rect x="920" y="266" width="3" height="3" rx="0" fill="#ffffff" opacity="0.8"/><rect x="935" y="14" width="4" height="4" rx="0" fill="#ffffff" opacity="0.6"/><rect x="384" y="12" width="5" height="5" rx="0" fill="#ffffff" opacity="0.6"/><rect x="681" y="116" width="3" height="3" rx="0" fill="#ffffff" opacity="0.6"/><rect x="209" y="273" width="3" height="3" rx="0" fill="#ffffff" opacity="0.25"/><rect x="239" y="249" width="4" height="4" rx="0" fill="#ffffff" opacity="0.4"/><rect x="210" y="21" width="5" height="5" rx="0" fill="#ffffff" opacity="0.4"/><rect x="69" y="212" width="3" height="3" rx="0" fill="#ffffff" opacity="0.8"/><rect x="127" y="38" width="3" height="3" rx="0" fill="#ffffff" opacity="0.6"/><rect x="559" y="190" width="4" height="4" rx="0" fill="#ffffff" opacity="0.8"/><rect x="838" y="11" width="4" height="4" rx="0" fill="#ffffff" opacity="0.25"/><rect x="76" y="153" width="4" height="4" rx="0" fill="#ffffff" opacity="0.6"/><rect x="248" y="179" width="3" height="3" rx="0" fill="#ffffff" opacity="0.4"/><rect x="1020" y="153" width="5" height="5" rx="0" fill="#ffffff" opacity="0.25"/><rect x="530" y="135" width="3" height="3" rx="0" fill="#ffffff" opacity="0.8"/><rect x="643" y="110" width="5" height="5" rx="0" fill="#ffffff" opacity="0.6"/><rect x="270" y="117" width="3" height="3" rx="0" fill="#ffffff" opacity="0.6"/><rect x="178" y="231" width="5" height="5" rx="0" fill="#ffffff" opacity="0.8"/><rect x="1079" y="86" width="3" height="3" rx="0" fill="#ffffff" opacity="0.4"/><rect x="1209" y="281" width="4" height="4" rx="0" fill="#ffffff" opacity="0.8"/><rect x="102.4" y="252" width="120" height="26" rx="4" fill="#ffffff" opacity="0.10"/><rect x="122.4" y="232" width="70" height="24" rx="4" fill="#ffffff" opacity="0.10"/><rect x="665.6" y="276" width="150" height="26" rx="4" fill="#ffffff" opacity="0.10"/><rect x="685.6" y="256" width="100" height="24" rx="4" fill="#ffffff" opacity="0.10"/><rect x="1152.0" y="222" width="110" height="26" rx="4" fill="#ffffff" opacity="0.10"/><rect x="1172.0" y="202" width="60" height="24" rx="4" fill="#ffffff" opacity="0.10"/><rect x="0" y="366" width="1280" height="6" rx="0" fill="#1b4d2b" /><rect x="0" y="372" width="1280" height="78" rx="0" fill="url(#studs)" /><rect x="0" y="372" width="1280" height="5" rx="0" fill="#000" opacity="0.25"/><rect x="36.0" y="30" width="580.0" height="70" rx="12" fill="#07080f" opacity="0.55"/><rect x="30.0" y="24" width="580.0" height="70" rx="12" fill="#202332" stroke="#000" stroke-width="2" stroke-opacity="0.35"/><text x="52.0" y="68" font-family="'Segoe UI','Helvetica Neue',Arial,sans-serif" font-size="26" font-weight="900" fill="#2ecc85" text-anchor="start" letter-spacing="1">NAIK</text><text x="154.0" y="66" font-family="'Segoe UI','Helvetica Neue',Arial,sans-serif" font-size="14" font-weight="600" fill="#e3e6fb" text-anchor="start" >Kamera ke atas + joystick maju</text><rect x="488.0" y="46" width="40" height="26" rx="6" fill="#2c3044" stroke="#000" stroke-width="2" stroke-opacity="0.35"/><circle cx="508.0" cy="59" r="7" fill="#101118" stroke="#fff" stroke-width="2.5"/><path d="M532.0 59 l18 -14" stroke="#fff" stroke-width="3" stroke-linecap="round"/><circle cx="574.0" cy="59" r="20" fill="#2c3044" stroke="#000" stroke-opacity="0.35" stroke-width="2"/><circle cx="574.0" cy="51" r="10" fill="#7c5cff"/><path d="M160.0 332.0 L406.7 164.2" stroke="#ffffff" stroke-width="5" stroke-dasharray="3 12" stroke-linecap="round" opacity="0.75"/><polygon points="410.0,162.0 400.0,183.8 386.0,163.3" fill="#ffffff"/><g transform="translate(251.92293991721888,269.49240085629117) rotate(55.7842978675626) scale(1.0)"><rect x="-14" y="-28" width="14" height="28" rx="3" fill="#4fae4a" stroke="#000" stroke-width="1.5" stroke-opacity="0.35"/><rect x="0" y="-28" width="14" height="28" rx="3" fill="#4fae4a" stroke="#000" stroke-width="1.5" stroke-opacity="0.35"/><rect x="-28" y="-56" width="14" height="28" rx="3" fill="#f7d44c" stroke="#000" stroke-width="1.5" stroke-opacity="0.35"/><rect x="14" y="-56" width="14" height="28" rx="3" fill="#f7d44c" stroke="#000" stroke-width="1.5" stroke-opacity="0.35"/><rect x="-14" y="-56" width="28" height="28" rx="3" fill="#1f9bff" stroke="#000" stroke-width="1.5" stroke-opacity="0.35"/><rect x="-11" y="-80" width="22" height="22" rx="7" fill="#f7d44c" stroke="#000" stroke-width="1.5" stroke-opacity="0.35"/><rect x="-6" y="-72" width="3.4" height="3.4" rx="1" fill="#1b1b1b" /><rect x="3" y="-72" width="3.4" height="3.4" rx="1" fill="#1b1b1b" /><path d="M-5 -64 Q0 -60 5 -64" fill="none" stroke="#1b1b1b" stroke-width="2" stroke-linecap="round"/></g><rect x="676.0" y="30" width="580.0" height="70" rx="12" fill="#07080f" opacity="0.55"/><rect x="670.0" y="24" width="580.0" height="70" rx="12" fill="#202332" stroke="#000" stroke-width="2" stroke-opacity="0.35"/><text x="692.0" y="68" font-family="'Segoe UI','Helvetica Neue',Arial,sans-serif" font-size="26" font-weight="900" fill="#f05460" text-anchor="start" letter-spacing="1">TURUN</text><text x="815.0" y="66" font-family="'Segoe UI','Helvetica Neue',Arial,sans-serif" font-size="14" font-weight="600" fill="#e3e6fb" text-anchor="start" >Kamera ke bawah + joystick maju</text><rect x="1128.0" y="46" width="40" height="26" rx="6" fill="#2c3044" stroke="#000" stroke-width="2" stroke-opacity="0.35"/><circle cx="1148.0" cy="59" r="7" fill="#101118" stroke="#fff" stroke-width="2.5"/><path d="M1172.0 59 l18 14" stroke="#fff" stroke-width="3" stroke-linecap="round"/><circle cx="1214.0" cy="59" r="20" fill="#2c3044" stroke="#000" stroke-opacity="0.35" stroke-width="2"/><circle cx="1214.0" cy="51" r="10" fill="#7c5cff"/><path d="M800.0 140.0 L1046.8 319.6" stroke="#ffffff" stroke-width="5" stroke-dasharray="3 12" stroke-linecap="round" opacity="0.75"/><polygon points="1050.0,322.0 1026.1,319.9 1040.7,299.9" fill="#ffffff"/><g transform="translate(892.6617475724786,207.45775223276445) rotate(126.05461816646104) scale(1.0)"><rect x="-14" y="-28" width="14" height="28" rx="3" fill="#4fae4a" stroke="#000" stroke-width="1.5" stroke-opacity="0.35"/><rect x="0" y="-28" width="14" height="28" rx="3" fill="#4fae4a" stroke="#000" stroke-width="1.5" stroke-opacity="0.35"/><rect x="-28" y="-56" width="14" height="28" rx="3" fill="#f7d44c" stroke="#000" stroke-width="1.5" stroke-opacity="0.35"/><rect x="14" y="-56" width="14" height="28" rx="3" fill="#f7d44c" stroke="#000" stroke-width="1.5" stroke-opacity="0.35"/><rect x="-14" y="-56" width="28" height="28" rx="3" fill="#1f9bff" stroke="#000" stroke-width="1.5" stroke-opacity="0.35"/><rect x="-11" y="-80" width="22" height="22" rx="7" fill="#f7d44c" stroke="#000" stroke-width="1.5" stroke-opacity="0.35"/><rect x="-6" y="-72" width="3.4" height="3.4" rx="1" fill="#1b1b1b" /><rect x="3" y="-72" width="3.4" height="3.4" rx="1" fill="#1b1b1b" /><path d="M-5 -64 Q0 -60 5 -64" fill="none" stroke="#1b1b1b" stroke-width="2" stroke-linecap="round"/></g><text x="640.0" y="430" font-family="'Segoe UI','Helvetica Neue',Arial,sans-serif" font-size="16" font-weight="700" fill="#ffffff" text-anchor="middle" >Joystick dilepas = melayang di tempat.</text>
</svg>
